<?xml version="1.0" encoding="UTF-8"?>
<svg width="752pt" height="752pt" version="1.1" viewBox="0 0 752 752" xmlns="http://www.w3.org/2000/svg">
 <g>
  <path d="m288.51 492.55h-116.34c-1.7305 0-3.1289 1.4727-3.1289 3.293 0 1.8086 1.4023 3.293 3.1289 3.293h117.7c-0.015625-0.23828-0.070313-0.46094-0.070313-0.69141z"/>
  <path d="m280.38 393.99h191.25c5.8828 0 10.66 4.5781 11.008 10.309h99.656c-1.1875-5.6055-3.9258-13.863-10.211-23.172 0 0-2.832-3.8633-9.5312-6.4414 0 0-14.277-4.332-21.047-9.0703 0 0.13672 0 0.28125-0.015625 0.41016-0.027344 1.8711-0.23828 4.1445-0.52734 6.5078-0.85547 7.0234-2.4375 14.824-2.4375 14.824-2.0938-3.4492-3.9883-5.7305-5.6484-7.1953-2.2734-2.0117-4.1484-2.4805-5.5469-2.3398-1.668 0.17578-2.668 1.207-2.9688 1.543 9.1562-11.156 12.418-20.699 12.711-21.578-0.0625-0.69531-0.085937-1.4414-0.042968-2.2344 0 0-0.058594-0.98438-0.14063-0.875 2.625-3.3633 4.7461-6.1719 6.168-10.082 2.3945-2.4258 3.6367-8.2891 3.6367-8.2891 2.0078-5.6328 0.77344-7.8086-0.17969-8.6289 1.457-4.7188 4.6172-18.004-2.8984-26.465 0 0-4.6367-6.375-16.234-8.6914 0 0-4.4531-1.8008-6.2305-6.5039 0 0-3.9961 0.51562-3.9961 3.9922l-1.9219-0.76562-1.7891 1.2578-2.0742-1.2578s-0.76172-0.23047-2.5117 0.38281c0 0-13.328 5.793-17.191 17.766 0 0-2.1367 5.0781 0.47266 19.871-0.63281 0.25391-3.4258 1.8008-0.84375 9.0352 0 0 1.1172 5.3086 3.2969 7.9141 1.2266 3.8047 3.1133 7.4766 5.4141 10.727-0.007812-0.015625-0.023438-0.023438-0.027344-0.039062 0 0 0.29297 1.4219 0.019532 3.4141 0.53906 1.4648 4.8555 12.754 12.469 21.293-0.39844-0.41016-1.2344-1.0859-2.4688-1.2969-1.3398-0.22656-3.1445 0.089844-5.3711 1.8867-1.7773 1.4414-3.832 3.8125-6.1289 7.6016 0 0-1.8906-9.3164-2.6562-16.75-0.1875-1.7812-0.30469-3.457-0.31641-4.875 0-0.28125 0-0.54297 0.003907-0.80469-6.6211 4.8359-21.383 9.3125-21.383 9.3125-6.6992 2.5781-9.5312 6.4297-9.5312 6.4297-1.8516 2.7422-3.3164 5.3438-4.5977 7.8555-2.0234-7.0234-5.668-15.988-12.34-25.871 0 0-3.7734-5.1523-12.703-8.5859 0 0-19.043-5.7773-28.078-12.094 0 0.18359 0 0.37109-0.003906 0.55078-0.042969 2.4844-0.31641 5.5273-0.70703 8.6758-1.1445 9.3672-3.2578 19.766-3.2578 19.766-2.7891-4.6016-5.3047-7.6445-7.5352-9.5938-3.0391-2.6797-5.5273-3.3047-7.3984-3.1172-2.2227 0.22656-3.5508 1.6094-3.9453 2.0586 12.195-14.883 16.543-27.602 16.93-28.77-0.074218-0.92969-0.097656-1.9141-0.046875-2.9805 0 0-0.070312-1.3086-0.20312-1.1641 3.4961-4.4844 6.3359-8.2266 8.2266-13.445 3.2031-3.2305 4.8477-11.047 4.8477-11.047 2.6758-7.5078 1.0195-10.414-0.24609-11.5 1.9414-6.2891 6.1562-24.012-3.8711-35.293 0 0-6.1797-8.5-21.633-11.59 0 0-5.9375-2.4023-8.3203-8.668 0 0-5.3242 0.69141-5.3242 5.3242l-2.5664-1.0273-2.3789 1.6758-2.7656-1.6758s-1.0195-0.30859-3.3516 0.51172c0 0-17.766 7.7227-22.922 23.684 0 0-2.8516 6.7734 0.62891 26.5-0.84375 0.33594-4.5664 2.4023-1.1289 12.047 0 0 1.4922 7.0781 4.4062 10.551 1.6367 5.0664 4.1445 9.9688 7.207 14.301-0.015625-0.019531-0.027344-0.03125-0.042969-0.050781 0 0 0.38672 1.8945 0.027344 4.5508 0.71875 1.9492 6.4883 17 16.633 28.383-0.53516-0.53906-1.6523-1.4492-3.2969-1.7305-1.7812-0.30469-4.1836 0.11719-7.1602 2.5195-2.3672 1.9102-5.1055 5.0781-8.1641 10.141 0 0-2.5234-12.422-3.5469-22.34-0.25-2.3711-0.40625-4.6094-0.42188-6.4961 0-0.375 0-0.73047 0.003906-1.0781-8.8359 6.4453-28.516 12.414-28.516 12.414-8.9258 3.4375-12.703 8.582-12.703 8.582-6.6719 9.875-10.324 18.844-12.34 25.867-1.2852-2.5039-2.7461-5.0977-4.5859-7.8242 0 0-2.832-3.8633-9.5312-6.4414 0 0-14.277-4.332-21.051-9.0703 0 0.13672 0 0.28125-0.007813 0.41016-0.03125 1.8711-0.24219 4.1445-0.53125 6.5078-0.85156 7.0234-2.4336 14.824-2.4336 14.824-2.0898-3.4492-3.9844-5.7305-5.6484-7.1953-2.2773-2.0117-4.1523-2.4805-5.5469-2.3398-1.668 0.17578-2.668 1.207-2.9648 1.543 9.1445-11.156 12.414-20.699 12.707-21.578-0.0625-0.69531-0.085937-1.4414-0.042968-2.2344 0 0-0.050782-0.98438-0.14844-0.875 2.625-3.3633 4.7461-6.1719 6.1719-10.082 2.3906-2.4258 3.6328-8.2891 3.6328-8.2891 2.0078-5.6328 0.77344-7.8086-0.17578-8.6289 1.457-4.7188 4.6094-18.004-2.9023-26.465 0 0-4.6406-6.375-16.234-8.6914 0 0-4.4531-1.8008-6.2305-6.5039 0 0-3.9961 0.51562-3.9961 3.9922l-1.9258-0.76562-1.7891 1.2578-2.0703-1.2578s-0.76172-0.23047-2.5117 0.38281c0 0-13.328 5.793-17.191 17.766 0 0-2.1406 5.0781 0.47266 19.871-0.63281 0.25391-3.4258 1.8008-0.84375 9.0352 0 0 1.1211 5.3086 3.3008 7.9141 1.2266 3.8047 3.1133 7.4766 5.4141 10.727-0.007813-0.015625-0.019532-0.023438-0.03125-0.039062 0 0 0.29297 1.4219 0.019531 3.4141 0.53906 1.4648 4.8594 12.754 12.473 21.293-0.40234-0.41016-1.2344-1.0859-2.4727-1.2969-1.3438-0.22656-3.1445 0.089844-5.3711 1.8867-1.7812 1.4414-3.832 3.8125-6.1289 7.6016 0 0-1.8867-9.3164-2.6523-16.75-0.1875-1.7812-0.30469-3.457-0.32031-4.875 0-0.28125 0-0.54297 0.007812-0.80469-6.6289 4.8359-21.387 9.3125-21.387 9.3125-6.6953 2.5781-9.5234 6.4297-9.5234 6.4297-6.293 9.3125-9.0391 17.578-10.215 23.188h99.676c0.40625-5.8203 5.1406-10.309 10.961-10.309z"/>
  <path d="m237.11 445.37c0-0.007813-0.007813-0.023438-0.007813-0.023438-0.007812-0.023437-0.019531-0.042968-0.03125-0.0625-0.09375-0.13672-0.20703-0.26172-0.3125-0.38281-0.070312-0.082032-0.125-0.15234-0.1875-0.22266-0.0625-0.0625-0.14844-0.125-0.22656-0.1875-0.125-0.10938-0.23828-0.22266-0.375-0.30859-0.023438-0.023438-0.050781-0.03125-0.074219-0.042969-0.42188-0.26953-0.88281-0.47266-1.3828-0.58203-0.26172-0.042969-0.53906-0.070313-0.82031-0.070313-1.4336 0-2.6953 0.74219-3.4258 1.8594-0.41797 0.64453-0.66797 1.4023-0.66797 2.2266 0 2.2578 1.8281 4.0742 4.0898 4.0742 2.2539 0 4.0781-1.8203 4.0781-4.0781 0-0.28516-0.03125-0.55469-0.085937-0.82812-0.10156-0.5-0.30078-0.95313-0.57031-1.3711z"/>
  <path d="m462.14 499.14h117.7c1.7344 0 3.1406-1.4727 3.1406-3.293-0.015625-1.8242-1.4062-3.293-3.1406-3.293h-116.31l-1.332 6.0859c-0.003906 0.17969-0.046875 0.33594-0.050781 0.5z"/>
  <path d="m574.69 490.86c4.5703 0 8.2969-3.6836 8.2734-8.0703l15.383-70.285c0-4.5273-3.7266-8.2031-8.3047-8.2031h-107.41c-0.34766-5.7305-5.125-10.309-11.008-10.309h-191.25c-5.8203 0-10.555 4.4883-10.965 10.309h-107.45c-4.5703 0-8.293 3.6758-8.2812 8.3555l15.359 69.992c0 4.5273 3.7188 8.2109 8.293 8.2109h110.81l0.375 1.6992 1.2891 5.8906c0 0.23828 0.058594 0.46094 0.070313 0.69141 0.37109 5.707 5.1289 10.258 10.992 10.258h150.28c5.918 0 10.727-4.6406 10.988-10.258 0.007813-0.16406 0.050782-0.32031 0.050782-0.49609l1.332-6.0859 0.375-1.6992zm15.352-85.184c3.8164 0 6.9336 3.0625 6.9375 6.6875l-15.379 70.285c0 3.7656-3.1016 6.8281-6.9102 6.8281h-110.5l18.34-83.801zm-412.71 83.801c-3.8203 0-6.918-3.0625-6.9336-6.9805l-15.355-69.992c0-3.7656 3.1055-6.8281 6.918-6.8281h107.49l18.383 83.801zm284.33 3.082-1.2891 5.8906c0 0.24219-0.125 0.45313-0.13672 0.69141-0.38281 4.6797-4.2422 8.4219-9.082 8.4219h-150.29c-4.7773 0-8.5859-3.6602-9.0703-8.4219-0.027344-0.30469-0.17969-0.56641-0.17969-0.89062l-1.25-5.6953-0.375-1.6992-0.29688-1.3828-18.383-83.801-0.16016-0.73438c0-0.23047 0.11328-0.41797 0.13281-0.64062 0.35156-4.707 4.2344-8.4727 9.0938-8.4727h191.25c4.9258 0 8.8828 3.8516 9.1602 8.4727 0.015625 0.15234 0.097656 0.29297 0.097656 0.44531l-0.20312 0.92969-18.344 83.805-0.29688 1.3828z"/>
  <path d="m518.34 451.65c2.2539 0 4.0781-1.8203 4.0781-4.0781 0-0.28516-0.027343-0.55469-0.085937-0.82812-0.10547-0.49609-0.29688-0.95312-0.56641-1.3672 0-0.007812-0.015625-0.023437-0.015625-0.023437-0.007813-0.023438-0.023438-0.042969-0.027344-0.0625-0.097656-0.13672-0.20703-0.26172-0.3125-0.38281-0.074219-0.082031-0.125-0.15234-0.18359-0.22266-0.066406-0.0625-0.14844-0.125-0.23047-0.1875-0.125-0.10938-0.24219-0.22266-0.375-0.30859-0.027344-0.023437-0.058594-0.03125-0.085938-0.042968-0.41797-0.26953-0.875-0.47266-1.3789-0.58203-0.26562-0.042968-0.53516-0.070312-0.82031-0.070312-1.4414 0-2.6914 0.74219-3.4258 1.8594-0.41797 0.64453-0.66797 1.4023-0.66797 2.2266 0.007813 2.25 1.8359 4.0703 4.0977 4.0703z"/>
  <path d="m457.99 511.67h-164c-2.3008 0-4.1719 1.9609-4.1719 4.3867 0 2.4141 1.8711 4.3945 4.1719 4.3945h164c2.3047 0 4.1836-1.9609 4.1836-4.3945-0.007812-2.4219-1.8711-4.3867-4.1836-4.3867z"/>
  <path d="m380.58 448.76c0-0.007812-0.015625-0.023437-0.015625-0.027343-0.015625-0.027344-0.027344-0.058594-0.042969-0.085938-0.125-0.18359-0.28906-0.33984-0.42578-0.50781-0.089844-0.097657-0.15625-0.20312-0.25-0.29297-0.085938-0.089844-0.19531-0.17188-0.29688-0.25391-0.16406-0.14844-0.32812-0.29688-0.50391-0.41797-0.03125-0.027344-0.066407-0.046875-0.097657-0.058594-0.55859-0.35938-1.1758-0.62891-1.8477-0.77344-0.34766-0.0625-0.71484-0.097656-1.0898-0.097656-1.9141 0-3.5938 0.98828-4.5664 2.4805-0.55859 0.85547-0.89062 1.8672-0.89062 2.9648 0 3.0039 2.4336 5.4258 5.4492 5.4258 3.0078 0 5.4375-2.4297 5.4375-5.4375 0-0.37891-0.042969-0.73438-0.097656-1.0977-0.14844-0.65625-0.40234-1.2656-0.76172-1.8203z"/>
 </g>
</svg>
